<?xml version="1.0" standalone="no"?>
<!DOCTYPE svg PUBLIC "-//W3C//DTD SVG 20010904//EN"
 "http://www.w3.org/TR/2001/REC-SVG-20010904/DTD/svg10.dtd">
<svg version="1.0" xmlns="http://www.w3.org/2000/svg"
 width="731.000000pt" height="1280.000000pt" viewBox="0 0 731.000000 1280.000000"
 preserveAspectRatio="xMidYMid meet">

<g transform="translate(0.000000,1280.000000) scale(0.100000,-0.100000)"
fill="#000000" stroke="none">
<path d="M3510 11616 c0 -8 63 -106 67 -106 3 0 -7 20 -22 45 -14 25 -23 50
-20 55 3 6 -1 10 -9 10 -9 0 -16 -2 -16 -4z"/>
<path d="M3585 11592 c65 -28 98 -48 134 -84 38 -37 70 -99 71 -138 l1 -25 10
23 9 24 303 -7 c203 -5 304 -11 309 -19 4 -6 8 -22 8 -36 l0 -25 -122 2 c-150
2 -136 -4 20 -10 l112 -3 0 32 c0 17 -15 62 -34 100 -19 37 -32 72 -30 76 3 4
-2 8 -10 8 -18 0 -21 -16 -6 -25 6 -4 19 -24 30 -46 l20 -39 -304 0 -304 0
-31 54 c-17 30 -45 66 -63 79 -40 31 -131 77 -149 76 -8 0 4 -8 26 -17z"/>
<path d="M2736 11453 c53 -89 59 -84 -121 -103 -495 -50 -925 -149 -1320 -303
-239 -92 -399 -184 -517 -295 -114 -107 -169 -208 -189 -348 -24 -156 27 -281
200 -494 65 -80 128 -193 155 -275 18 -57 46 -188 41 -193 -2 -2 -29 10 -61
26 -88 45 -158 62 -249 62 -187 0 -346 -85 -414 -221 -39 -79 -47 -148 -27
-229 30 -114 79 -178 265 -338 170 -146 248 -226 300 -305 l40 -62 -30 -115
c-285 -1093 -347 -1412 -380 -1960 -18 -308 0 -699 45 -934 109 -564 369 -897
901 -1152 273 -130 584 -217 997 -277 l157 -23 29 -39 c39 -54 102 -109 153
-136 48 -24 257 -79 298 -78 14 0 -13 9 -60 19 -232 48 -314 93 -388 208 l-30
48 -108 12 c-517 62 -986 217 -1304 431 -399 269 -579 594 -656 1186 -21 163
-24 723 -5 920 19 197 58 457 103 680 37 190 271 1133 288 1163 6 10 17 1 44
-36 49 -69 126 -107 201 -99 57 6 120 33 148 64 29 32 58 106 58 150 0 93 -78
222 -221 363 l-96 95 13 45 c21 68 35 251 28 354 -7 109 -38 302 -61 371 -27
85 -91 199 -161 286 -181 226 -227 357 -187 528 68 288 378 501 1000 690 209
63 439 114 670 150 184 29 485 62 496 56 18 -12 8 25 -25 89 -19 35 -31 67
-28 70 3 3 -2 6 -11 6 -12 0 -8 -13 19 -57z m-1926 -1959 c68 -19 168 -72 180
-95 14 -25 26 -299 13 -299 -5 0 -43 18 -85 39 -95 49 -174 67 -233 52 -62
-15 -70 -14 -83 13 -32 71 -17 156 28 156 11 0 20 5 20 10 0 18 -33 11 -57
-12 -18 -17 -23 -32 -23 -75 0 -111 75 -204 284 -353 326 -232 481 -464 407
-608 -67 -130 -240 -151 -337 -40 -17 19 -53 73 -80 118 -62 104 -143 192
-314 340 -163 141 -220 203 -257 278 -24 48 -28 70 -28 137 0 102 31 172 109
242 119 107 290 143 456 97z m1 -330 c30 -9 85 -32 122 -52 l69 -37 -6 -60
c-6 -69 -23 -135 -35 -135 -13 0 -223 158 -269 203 -65 63 -69 74 -30 86 49
14 89 13 149 -5z"/>
<path d="M2771 11485 c57 -21 116 -62 141 -98 22 -31 25 -32 63 -25 22 4 176
10 342 14 l302 7 -6 31 c-3 17 -12 45 -20 61 -7 17 -11 21 -7 10 3 -11 8 -35
11 -52 l6 -33 -149 0 c-82 0 -233 -5 -336 -11 l-188 -10 -30 35 c-31 35 -121
87 -149 85 -9 0 0 -6 20 -14z"/>
<path d="M4466 11460 c54 -30 99 -77 116 -119 6 -14 14 -53 18 -86 6 -53 7
-55 9 -17 l1 42 68 2 67 2 -69 5 -69 6 -13 39 -14 39 103 -7 c601 -40 1032
-123 1342 -258 294 -129 532 -338 603 -530 31 -84 36 -142 18 -228 -27 -127
-91 -244 -230 -419 -133 -167 -187 -291 -207 -470 -17 -158 3 -299 83 -577
l11 -41 -78 -78 c-78 -80 -160 -187 -197 -259 -31 -60 -23 -161 18 -218 38
-55 99 -89 173 -95 84 -8 139 19 187 91 20 31 40 56 44 56 4 0 14 -24 22 -52
9 -29 72 -242 141 -473 172 -575 213 -746 249 -1040 18 -147 18 -723 0 -905
-57 -577 -215 -1015 -479 -1332 -242 -290 -545 -449 -1054 -552 -108 -22 -412
-66 -455 -66 -11 0 -6 14 20 49 49 67 85 148 91 207 5 47 4 46 -9 -13 -29
-123 -117 -250 -229 -327 -31 -21 -98 -56 -149 -77 -51 -21 -88 -39 -82 -39
13 0 125 45 176 71 21 11 61 38 90 62 l53 43 185 22 c403 50 736 142 968 268
422 230 717 689 836 1303 92 471 100 1092 20 1531 -40 220 -74 342 -335 1206
-21 71 -39 136 -39 143 0 21 88 140 159 215 36 37 122 114 189 169 203 165
265 260 265 407 1 60 -5 87 -25 132 -66 143 -225 238 -398 238 -133 0 -285
-52 -392 -135 -56 -42 -55 -45 -38 93 21 161 72 267 225 464 101 130 176 263
200 353 22 87 20 202 -6 272 -61 166 -250 354 -486 484 -302 167 -740 267
-1378 315 l-220 16 -37 34 c-36 32 -88 64 -105 64 -4 0 15 -13 43 -30z m2385
-1992 c88 -42 149 -100 187 -177 23 -47 27 -69 27 -136 -1 -142 -53 -217 -284
-409 -160 -132 -223 -202 -334 -367 -45 -67 -94 -131 -109 -142 -38 -28 -126
-34 -183 -12 -58 22 -111 83 -124 144 -16 77 2 126 90 246 76 103 167 190 318
303 179 133 245 196 277 267 41 87 23 161 -43 180 -33 9 -27 -7 10 -30 37 -23
45 -58 28 -116 l-11 -36 -82 0 c-71 0 -94 -4 -158 -31 -41 -18 -101 -48 -133
-67 -32 -19 -60 -35 -62 -35 -6 0 -23 91 -35 186 l-11 89 48 43 c55 49 146 97
236 123 47 14 87 18 168 16 98 -3 112 -6 180 -39z m-186 -308 c18 -7 14 -14
-45 -72 -52 -50 -222 -182 -287 -221 -8 -5 -20 18 -37 75 l-26 83 23 17 c36
29 199 107 242 117 50 11 104 12 130 1z"/>
<path d="M2947 11310 c3 -19 6 -35 7 -35 1 0 21 2 46 6 l45 6 -41 1 c-34 2
-42 6 -51 30 -11 26 -11 26 -6 -8z"/>
<path d="M3601 11333 c-1 -8 -26 -13 -73 -16 l-73 -3 73 -2 c39 -1 72 -6 72
-11 0 -5 -11 -48 -25 -96 -14 -48 -24 -92 -23 -97 6 -17 59 192 55 215 -2 12
-5 17 -6 10z"/>
<path d="M2790 11301 c0 -27 -4 -30 -37 -34 l-38 -4 43 -1 c42 -2 42 -2 42 33
0 19 -2 35 -5 35 -3 0 -5 -13 -5 -29z"/>
<path d="M3800 11324 c1 -30 -31 -138 -56 -193 -19 -40 -33 -75 -31 -77 8 -8
72 143 82 196 l12 55 159 5 159 5 -163 5 c-89 3 -162 5 -162 4z"/>
<path d="M3268 11303 c28 -2 76 -2 105 0 28 2 5 3 -53 3 -58 0 -81 -1 -52 -3z"/>
<path d="M3097 11293 c18 -2 50 -2 70 0 21 2 7 4 -32 4 -38 0 -55 -2 -38 -4z"/>
<path d="M4432 11250 c0 -19 2 -27 5 -17 2 9 2 25 0 35 -3 9 -5 1 -5 -18z"/>
<path d="M4773 11273 c15 -2 39 -2 55 0 15 2 2 4 -28 4 -30 0 -43 -2 -27 -4z"/>
<path d="M4888 11263 c18 -2 45 -2 60 0 15 2 0 4 -33 4 -33 0 -45 -2 -27 -4z"/>
<path d="M2590 11250 c-22 -5 -6 -6 40 -3 41 3 77 7 79 9 7 7 -83 2 -119 -6z"/>
<path d="M5013 11253 c15 -2 37 -2 50 0 12 2 0 4 -28 4 -27 0 -38 -2 -22 -4z"/>
<path d="M5135 11240 c69 -11 126 -10 65 1 -25 4 -61 7 -80 7 -29 -1 -26 -2
15 -8z"/>
<path d="M2488 11233 c12 -2 30 -2 40 0 9 3 -1 5 -23 4 -22 0 -30 -2 -17 -4z"/>
<path d="M2370 11220 c-27 -6 -29 -8 -10 -8 14 -1 43 3 65 7 33 7 35 9 10 9
-16 -1 -46 -4 -65 -8z"/>
<path d="M2781 11214 c0 -11 3 -14 6 -6 3 7 2 16 -1 19 -3 4 -6 -2 -5 -13z"/>
<path d="M2948 11192 c-4 -24 -22 -77 -42 -119 -20 -41 -36 -80 -36 -87 0 -6
18 27 40 74 40 86 56 138 48 162 -3 7 -7 -6 -10 -30z"/>
<path d="M5340 11209 c52 -10 99 -17 105 -16 12 4 -153 37 -180 36 -11 0 23
-9 75 -20z"/>
<path d="M2245 11200 c-42 -11 -1 -11 50 -1 34 7 35 9 10 9 -16 0 -43 -4 -60
-8z"/>
<path d="M4406 11149 c-9 -34 -15 -63 -13 -66 2 -2 12 24 21 58 10 33 16 63
13 65 -2 2 -11 -24 -21 -57z"/>
<path d="M2178 11183 c6 -2 18 -2 25 0 6 3 1 5 -13 5 -14 0 -19 -2 -12 -5z"/>
<path d="M2751 11107 c-13 -45 -21 -98 -18 -117 l4 -35 1 39 c1 22 11 73 23
114 11 40 19 76 16 78 -2 2 -14 -33 -26 -79z"/>
<path d="M4586 11164 c-4 -14 -5 -28 -3 -31 3 -2 8 8 11 23 4 14 5 28 3 31 -3
2 -8 -8 -11 -23z"/>
<path d="M5570 11156 c63 -19 128 -39 144 -45 16 -7 31 -9 33 -7 6 6 -207 74
-255 81 -20 3 15 -10 78 -29z"/>
<path d="M2090 11170 c-20 -6 -21 -8 -5 -8 11 0 34 4 50 8 27 7 27 8 5 8 -14
0 -36 -4 -50 -8z"/>
<path d="M2038 11153 c7 -3 16 -2 19 1 4 3 -2 6 -13 5 -11 0 -14 -3 -6 -6z"/>
<path d="M1965 11140 c-25 -11 1 -11 35 0 20 6 21 8 5 8 -11 0 -29 -3 -40 -8z"/>
<path d="M1918 11123 c7 -3 16 -2 19 1 4 3 -2 6 -13 5 -11 0 -14 -3 -6 -6z"/>
<path d="M1840 11105 c-19 -7 -28 -13 -20 -13 8 0 31 6 50 13 19 7 28 13 20
13 -8 0 -31 -6 -50 -13z"/>
<path d="M4540 11048 c-35 -75 -48 -155 -33 -195 5 -15 8 1 8 50 0 61 5 83 33
141 18 38 31 71 29 73 -2 2 -19 -29 -37 -69z"/>
<path d="M1760 11080 c-18 -12 -2 -12 25 0 13 6 15 9 5 9 -8 0 -22 -4 -30 -9z"/>
<path d="M3541 11033 l-1 -63 -197 -3 -198 -2 202 -3 201 -2 13 -37 c27 -84
126 -183 182 -183 18 0 18 1 -2 34 -12 19 -28 51 -35 72 -8 22 -15 32 -15 24
-1 -8 10 -39 24 -67 13 -29 20 -53 16 -53 -19 0 -93 59 -119 95 -36 50 -54
101 -62 185 l-7 65 -2 -62z"/>
<path d="M5790 11080 c8 -5 20 -10 25 -10 6 0 3 5 -5 10 -8 5 -19 10 -25 10
-5 0 -3 -5 5 -10z"/>
<path d="M1630 11034 c-206 -82 -410 -199 -516 -297 -80 -73 -124 -179 -95
-226 6 -10 8 -1 4 26 -7 50 20 114 73 172 81 90 336 238 559 325 50 19 83 35
75 35 -8 -1 -53 -16 -100 -35z"/>
<path d="M4380 11020 l0 -50 -341 0 -342 0 6 38 c4 26 3 32 -4 20 -5 -9 -11
-43 -13 -75 -2 -32 -2 -43 1 -25 l4 32 344 0 c319 0 344 -1 348 -17 3 -10 5
15 6 55 0 39 -1 72 -4 72 -3 0 -5 -22 -5 -50z"/>
<path d="M5914 11022 c113 -59 224 -161 262 -238 19 -39 29 -79 34 -137 7 -80
7 -81 9 -21 2 119 -51 222 -162 314 -56 45 -202 130 -224 130 -4 0 32 -22 81
-48z"/>
<path d="M2860 10910 c0 -43 7 -80 20 -109 11 -24 20 -45 20 -47 0 -8 -44 18
-67 39 -13 11 -25 18 -28 15 -7 -7 84 -68 102 -68 17 0 17 1 -12 56 -31 58
-35 144 -7 145 13 0 14 2 2 6 -8 3 -18 11 -22 17 -4 6 -8 -18 -8 -54z"/>
<path d="M2963 10953 c32 -2 81 -2 110 0 29 2 3 3 -58 3 -60 0 -84 -1 -52 -3z"/>
<path d="M4551 10956 c2 -2 69 -6 149 -9 92 -3 120 -2 75 3 -75 8 -231 12
-224 6z"/>
<path d="M2695 10940 l-40 -7 41 -2 c39 -1 42 -3 58 -45 9 -25 23 -49 30 -55
8 -6 3 10 -10 36 -13 25 -24 55 -24 65 0 10 -3 17 -7 17 -5 -1 -26 -5 -48 -9z"/>
<path d="M4873 10933 c15 -2 37 -2 50 0 12 2 0 4 -28 4 -27 0 -38 -2 -22 -4z"/>
<path d="M2455 10912 c-60 -9 -103 -17 -95 -19 8 -2 76 6 150 16 74 10 117 19
95 19 -22 0 -89 -7 -150 -16z"/>
<path d="M4995 10919 c22 -4 54 -8 70 -7 22 0 19 3 -15 9 -60 10 -108 9 -55
-2z"/>
<path d="M5135 10899 c51 -10 92 -10 50 1 -16 4 -43 8 -60 8 -25 0 -24 -2 10
-9z"/>
<path d="M2303 10883 c9 -2 23 -2 30 0 6 3 -1 5 -18 5 -16 0 -22 -2 -12 -5z"/>
<path d="M5228 10883 c6 -2 18 -2 25 0 6 3 1 5 -13 5 -14 0 -19 -2 -12 -5z"/>
<path d="M2248 10873 c6 -2 18 -2 25 0 6 3 1 5 -13 5 -14 0 -19 -2 -12 -5z"/>
<path d="M5365 10854 c302 -74 469 -147 578 -253 65 -62 91 -106 98 -166 l6
-50 1 45 c1 57 -18 94 -88 166 -88 92 -168 136 -365 203 -102 34 -285 81 -312
80 -10 0 27 -11 82 -25z"/>
<path d="M2160 10860 c-20 -6 -21 -8 -5 -8 11 0 34 4 50 8 27 7 27 8 5 8 -14
0 -36 -4 -50 -8z"/>
<path d="M4427 10835 c24 -34 71 -80 76 -74 2 2 -20 27 -47 54 -30 30 -42 38
-29 20z"/>
<path d="M2035 10832 c-33 -8 -55 -17 -50 -18 6 -2 42 5 80 15 39 11 61 19 50
19 -11 0 -47 -7 -80 -16z"/>
<path d="M4520 10814 c0 -6 6 -19 14 -29 8 -11 12 -25 9 -32 -3 -7 2 -13 12
-13 15 0 14 5 -6 38 -28 46 -29 47 -29 36z"/>
<path d="M1875 10785 c-38 -12 -65 -23 -60 -24 6 0 44 10 85 23 41 14 68 25
60 25 -8 0 -46 -11 -85 -24z"/>
<path d="M3303 10803 c9 -2 25 -2 35 0 9 3 1 5 -18 5 -19 0 -27 -2 -17 -5z"/>
<path d="M3250 10778 c-22 -24 -36 -65 -26 -75 3 -4 6 3 6 15 0 11 12 34 26
51 30 36 25 42 -6 9z"/>
<path d="M3380 10782 c12 -9 25 -33 30 -52 7 -30 8 -31 9 -9 1 27 -32 79 -51
79 -6 0 0 -8 12 -18z"/>
<path d="M5255 10765 c-181 -55 -284 -89 -281 -93 2 -2 62 16 133 39 117 40
137 43 230 44 56 0 95 3 85 7 -17 7 -148 9 -167 3z"/>
<path d="M1742 10743 c-24 -8 -41 -17 -39 -19 4 -5 97 26 97 32 0 6 -11 4 -58
-13z"/>
<path d="M5500 10724 c78 -36 156 -98 179 -142 11 -20 20 -32 21 -27 0 21 -39
73 -81 107 -46 37 -139 88 -161 88 -7 0 12 -12 42 -26z"/>
<path d="M2433 10733 c37 -2 96 -2 130 0 34 2 4 3 -68 3 -71 0 -99 -1 -62 -3z"/>
<path d="M2283 10723 c15 -2 39 -2 55 0 15 2 2 4 -28 4 -30 0 -43 -2 -27 -4z"/>
<path d="M2643 10723 c9 -2 23 -2 30 0 6 3 -1 5 -18 5 -16 0 -22 -2 -12 -5z"/>
<path d="M1589 10681 c-48 -21 -108 -50 -134 -65 -83 -49 -165 -150 -180 -221
-4 -19 2 -12 14 18 22 53 55 101 104 147 27 27 118 75 267 143 19 9 31 16 25
16 -5 0 -49 -17 -96 -38z"/>
<path d="M2198 10713 c12 -2 30 -2 40 0 9 3 -1 5 -23 4 -22 0 -30 -2 -17 -4z"/>
<path d="M2698 10713 c6 -2 18 -2 25 0 6 3 1 5 -13 5 -14 0 -19 -2 -12 -5z"/>
<path d="M2085 10700 c-27 -7 -27 -8 -5 -8 14 0 39 4 55 8 27 7 27 8 5 8 -14
0 -38 -4 -55 -8z"/>
<path d="M2748 10703 c7 -3 16 -2 19 1 4 3 -2 6 -13 5 -11 0 -14 -3 -6 -6z"/>
<path d="M4055 10700 c4 -6 12 -10 19 -10 17 0 56 -43 56 -62 0 -18 -29 -28
-85 -28 -44 0 -59 7 -68 30 -4 12 -6 12 -6 -2 -1 -23 29 -38 78 -38 82 0 110
28 76 77 -14 20 -82 52 -70 33z"/>
<path d="M2845 10675 c39 -14 74 -23 79 -22 10 3 -124 47 -139 46 -6 0 22 -11
60 -24z"/>
<path d="M3252 10689 c7 -5 38 -8 68 -8 66 1 56 6 -23 12 -32 2 -52 0 -45 -4z"/>
<path d="M3997 10682 c-10 -10 -17 -23 -17 -28 0 -5 5 -1 11 9 6 10 20 22 32
27 15 6 17 9 6 9 -9 1 -23 -7 -32 -17z"/>
<path d="M1935 10669 c-158 -45 -255 -115 -255 -183 0 -38 33 -92 70 -114 22
-12 21 -11 -3 8 -35 28 -57 70 -57 109 0 67 100 132 273 176 51 13 81 24 67
24 -14 0 -56 -9 -95 -20z"/>
<path d="M4923 10663 c9 -2 23 -2 30 0 6 3 -1 5 -18 5 -16 0 -22 -2 -12 -5z"/>
<path d="M4658 10648 c23 -9 157 -9 207 0 25 5 -9 7 -92 7 -72 0 -124 -3 -115
-7z"/>
<path d="M5148 10653 c7 -3 16 -2 19 1 4 3 -2 6 -13 5 -11 0 -14 -3 -6 -6z"/>
<path d="M5225 10652 c62 -17 95 -45 113 -97 9 -26 11 -27 11 -7 1 13 -14 39
-36 63 -29 30 -47 41 -78 44 -34 4 -36 3 -10 -3z"/>
<path d="M5088 10623 c-29 -32 -48 -65 -48 -85 0 -7 9 5 19 28 10 22 31 50 46
62 15 12 23 22 18 22 -5 0 -21 -12 -35 -27z"/>
<path d="M2985 10630 c27 -12 43 -12 25 0 -8 5 -22 9 -30 9 -10 0 -8 -3 5 -9z"/>
<path d="M2253 10605 c-27 -17 -49 -40 -63 -71 -12 -25 -20 -47 -17 -50 3 -3
10 10 17 30 12 39 68 93 103 100 12 3 31 7 42 9 13 3 9 5 -10 6 -16 0 -49 -10
-72 -24z"/>
<path d="M2396 10619 c23 -5 59 -25 82 -44 32 -28 41 -32 46 -19 3 8 2 12 -4
9 -5 -3 -27 8 -48 25 -24 19 -54 32 -78 35 l-39 5 41 -11z"/>
<path d="M3030 10616 c0 -7 141 -49 146 -43 3 2 -23 12 -58 22 -34 9 -68 19
-75 22 -7 3 -13 3 -13 -1z"/>
<path d="M2551 10581 c-10 -6 0 -8 28 -4 51 7 101 -15 121 -53 8 -13 15 -22
17 -20 10 9 -19 45 -51 65 -35 22 -90 27 -115 12z"/>
<path d="M3205 10560 c11 -5 29 -8 40 -8 16 0 15 2 -5 8 -34 11 -60 11 -35 0z"/>
<path d="M4423 10553 c15 -2 37 -2 50 0 12 2 0 4 -28 4 -27 0 -38 -2 -22 -4z"/>
<path d="M4625 10550 c33 -4 74 -10 90 -13 20 -4 16 -2 -10 7 -22 8 -62 14
-90 14 l-50 -1 60 -7z"/>
<path d="M6184 10514 c-11 -24 -17 -41 -12 -38 12 7 40 64 36 73 -2 4 -12 -12
-24 -35z"/>
<path d="M3305 10540 c40 -9 112 -13 104 -6 -2 2 -35 6 -74 9 -54 4 -61 4 -30
-3z"/>
<path d="M4290 10535 c-60 -17 -29 -18 40 0 30 7 44 13 30 13 -14 0 -45 -6
-70 -13z"/>
<path d="M5701 10529 c-2 -45 -58 -85 -161 -115 l-45 -14 40 6 c91 13 189 85
172 127 -3 7 -6 6 -6 -4z"/>
<path d="M2526 10515 c3 -11 8 -36 11 -56 5 -33 2 -38 -23 -48 -22 -8 -23 -10
-4 -5 14 4 57 10 95 14 l70 7 -62 1 c-58 2 -63 4 -63 25 -1 12 -8 36 -16 52
-8 17 -12 21 -8 10z"/>
<path d="M3428 10523 c7 -3 16 -2 19 1 4 3 -2 6 -13 5 -11 0 -14 -3 -6 -6z"/>
<path d="M4779 10515 c18 -8 36 -15 40 -15 13 1 -45 29 -59 29 -8 0 0 -6 19
-14z"/>
<path d="M4195 10510 c-13 -5 -14 -9 -5 -9 8 0 24 4 35 9 13 5 14 9 5 9 -8 0
-24 -4 -35 -9z"/>
<path d="M5035 10510 c12 -20 71 -40 112 -39 34 1 32 2 -15 9 -29 4 -64 16
-78 25 -15 9 -23 12 -19 5z"/>
<path d="M5320 10499 c-19 -11 -28 -19 -19 -19 9 0 27 9 40 20 29 23 25 23
-21 -1z"/>
<path d="M4105 10485 c-39 -14 -40 -14 -5 -8 41 7 82 22 60 22 -8 0 -33 -7
-55 -14z"/>
<path d="M4830 10495 c0 -2 15 -11 33 -20 53 -25 97 -71 98 -102 1 -23 3 -24
6 -6 6 33 -12 59 -70 98 -48 33 -67 41 -67 30z"/>
<path d="M1038 10475 c6 -11 25 -33 44 -50 l33 -30 -35 40 c-19 22 -39 45 -44
50 -5 6 -4 1 2 -10z"/>
<path d="M2721 10472 c-1 -13 -10 -26 -23 -32 -16 -6 -18 -9 -7 -9 22 -1 42
24 36 46 -4 14 -5 13 -6 -5z"/>
<path d="M5228 10473 c12 -2 30 -2 40 0 9 3 -1 5 -23 4 -22 0 -30 -2 -17 -4z"/>
<path d="M2162 10450 c0 -14 2 -19 5 -12 2 6 2 18 0 25 -3 6 -5 1 -5 -13z"/>
<path d="M4038 10463 c7 -3 16 -2 19 1 4 3 -2 6 -13 5 -11 0 -14 -3 -6 -6z"/>
<path d="M3998 10453 c7 -3 16 -2 19 1 4 3 -2 6 -13 5 -11 0 -14 -3 -6 -6z"/>
<path d="M6124 10428 l-29 -33 33 29 c17 17 32 31 32 33 0 8 -8 1 -36 -29z"/>
<path d="M3890 10435 c-30 -7 -44 -13 -30 -13 14 0 48 6 75 13 65 16 27 17
-45 0z"/>
<path d="M4435 10440 c-13 -5 -14 -9 -5 -9 8 0 24 4 35 9 13 5 14 9 5 9 -8 0
-24 -4 -35 -9z"/>
<path d="M4521 10424 c37 -15 69 -58 69 -93 0 -29 -59 -44 -153 -40 -42 3 -70
1 -64 -3 21 -13 156 -9 192 6 39 17 44 39 20 86 -15 29 -61 61 -87 59 -7 0 3
-7 23 -15z"/>
<path d="M3188 10423 c39 -2 105 -2 145 0 39 1 7 3 -73 3 -80 0 -112 -2 -72
-3z"/>
<path d="M4379 10409 c-23 -19 -23 -20 -2 -10 12 6 25 16 28 21 10 16 -1 12
-26 -11z"/>
<path d="M2210 10410 c8 -5 22 -9 30 -9 10 0 8 3 -5 9 -27 12 -43 12 -25 0z"/>
<path d="M3070 10410 c-18 -12 -2 -12 25 0 13 6 15 9 5 9 -8 0 -22 -4 -30 -9z"/>
<path d="M3438 10413 c18 -2 45 -2 60 0 15 2 0 4 -33 4 -33 0 -45 -2 -27 -4z"/>
<path d="M3753 10413 c15 -2 37 -2 50 0 12 2 0 4 -28 4 -27 0 -38 -2 -22 -4z"/>
<path d="M3583 10403 c26 -2 68 -2 95 0 26 2 4 3 -48 3 -52 0 -74 -1 -47 -3z"/>
<path d="M1130 10385 c13 -16 143 -79 180 -89 18 -4 15 -1 -7 9 -19 9 -33 23
-33 33 0 13 -2 14 -9 3 -7 -11 -22 -7 -75 22 -37 19 -62 29 -56 22z"/>
<path d="M2273 10393 c9 -2 25 -2 35 0 9 3 1 5 -18 5 -19 0 -27 -2 -17 -5z"/>
<path d="M2433 10393 c9 -2 25 -2 35 0 9 3 1 5 -18 5 -19 0 -27 -2 -17 -5z"/>
<path d="M6070 10385 c-7 -9 -19 -14 -26 -11 -6 2 -22 -7 -35 -21 l-24 -25 41
20 c35 18 76 52 61 52 -2 0 -10 -7 -17 -15z"/>
<path d="M2378 10383 c7 -3 16 -2 19 1 4 3 -2 6 -13 5 -11 0 -14 -3 -6 -6z"/>
<path d="M4346 10365 c-9 -26 -7 -32 5 -12 6 10 9 21 6 23 -2 3 -7 -2 -11 -11z"/>
<path d="M1785 10351 c13 -11 104 -45 110 -40 2 3 -24 14 -58 27 -34 12 -57
18 -52 13z"/>
<path d="M4950 10332 c0 -16 -64 -62 -107 -78 -21 -7 -30 -13 -20 -14 43 -1
152 78 134 97 -4 3 -7 1 -7 -5z"/>
<path d="M4330 10321 c0 -6 4 -13 10 -16 6 -3 7 1 4 9 -7 18 -14 21 -14 7z"/>
<path d="M5915 10304 c-27 -13 -39 -21 -25 -18 29 7 100 43 85 43 -5 0 -32
-12 -60 -25z"/>
<path d="M1955 10296 c28 -8 70 -14 95 -14 45 1 45 1 -10 8 -30 4 -73 10 -95
13 -35 5 -33 4 10 -7z"/>
<path d="M2183 10273 c37 -2 97 -2 135 0 37 2 6 3 -68 3 -74 0 -105 -1 -67 -3z"/>
<path d="M5810 10265 c-19 -7 -28 -14 -20 -14 8 0 29 6 45 14 39 17 21 18 -25
0z"/>
<path d="M1410 10260 c8 -5 22 -9 30 -9 10 0 8 3 -5 9 -27 12 -43 12 -25 0z"/>
<path d="M2425 10258 c51 -9 215 -9 237 0 9 4 -49 7 -130 7 -87 0 -130 -3
-107 -7z"/>
<path d="M1490 10235 c19 -7 44 -14 55 -14 11 0 0 7 -25 15 -57 17 -77 17 -30
-1z"/>
<path d="M5725 10240 c-13 -5 -14 -9 -5 -9 8 0 24 4 35 9 13 5 14 9 5 9 -8 0
-24 -4 -35 -9z"/>
<path d="M5615 10215 c-27 -7 -41 -13 -30 -14 11 0 43 6 70 13 63 18 28 18
-40 1z"/>
<path d="M1585 10210 c11 -5 29 -8 40 -8 16 0 15 2 -5 8 -34 11 -60 11 -35 0z"/>
<path d="M1705 10184 c33 -7 71 -13 85 -13 14 1 -4 7 -40 14 -85 18 -123 17
-45 -1z"/>
<path d="M5495 10194 c-5 -2 -41 -8 -80 -13 -47 -6 -57 -9 -30 -9 22 0 72 5
110 12 39 8 57 14 40 14 -16 0 -34 -1 -40 -4z"/>
<path d="M1865 10160 c40 -9 112 -13 104 -6 -2 2 -35 6 -74 9 -54 4 -61 4 -30
-3z"/>
<path d="M5253 10163 c15 -2 39 -2 55 0 15 2 2 4 -28 4 -30 0 -43 -2 -27 -4z"/>
<path d="M5113 10153 c20 -2 54 -2 75 0 20 2 3 4 -38 4 -41 0 -58 -2 -37 -4z"/>
<path d="M2003 10143 c15 -2 39 -2 55 0 15 2 2 4 -28 4 -30 0 -43 -2 -27 -4z"/>
<path d="M4908 10143 c28 -2 76 -2 105 0 28 2 5 3 -53 3 -58 0 -81 -1 -52 -3z"/>
<path d="M2128 10133 c17 -2 47 -2 65 0 17 2 3 4 -33 4 -36 0 -50 -2 -32 -4z"/>
<path d="M4683 10133 c32 -2 81 -2 110 0 29 2 3 3 -58 3 -60 0 -84 -1 -52 -3z"/>
<path d="M2298 10123 c34 -2 90 -2 125 0 34 2 6 3 -63 3 -69 0 -97 -1 -62 -3z"/>
<path d="M4398 10123 c39 -2 105 -2 145 0 39 1 7 3 -73 3 -80 0 -112 -2 -72
-3z"/>
<path d="M2988 10113 c239 -2 626 -2 860 0 235 1 40 2 -433 2 -473 0 -665 -1
-427 -2z"/>
<path d="M2730 4330 c-11 -21 -20 -45 -20 -52 0 -7 9 6 20 30 10 23 24 42 30
42 5 0 10 5 10 10 0 23 -21 7 -40 -30z"/>
<path d="M4531 4314 c-17 -32 -29 -59 -28 -61 2 -2 16 19 31 47 15 28 32 48
37 44 13 -8 51 -83 60 -119 6 -25 7 -26 8 -7 1 25 -45 126 -65 143 -9 7 -20
-5 -43 -47z"/>
<path d="M3994 4297 c1 -49 -5 -74 -26 -117 -27 -53 -93 -139 -101 -130 -2 3
-14 21 -27 40 -13 19 -48 63 -77 98 -29 34 -60 85 -70 112 -10 28 -21 50 -24
50 -13 0 -59 -42 -80 -73 -16 -22 -8 -17 26 17 l48 50 24 -54 c13 -29 53 -89
89 -134 36 -44 70 -91 75 -103 5 -13 12 -23 16 -23 15 1 83 94 111 150 19 39
27 71 27 108 0 28 4 52 8 52 19 0 85 -41 115 -72 18 -20 52 -80 77 -138 44
-101 61 -130 74 -130 3 0 14 18 25 40 10 21 56 76 102 121 46 45 84 84 84 86
0 3 -30 -23 -67 -57 -70 -65 -143 -154 -143 -173 0 -22 -29 30 -69 123 -51
120 -102 174 -194 209 -23 9 -24 8 -23 -52z"/>
<path d="M4941 4309 c-22 -26 -63 -53 -125 -83 -66 -31 -103 -57 -134 -91 -24
-26 -42 -51 -40 -56 2 -5 19 12 38 38 29 40 53 57 140 100 63 31 116 64 132
83 23 28 27 30 31 14 3 -13 5 -10 6 9 1 36 -7 33 -48 -14z"/>
<path d="M3126 4324 c-4 -10 -2 -13 6 -8 7 4 28 -11 52 -38 23 -25 79 -78 124
-118 46 -40 97 -91 113 -113 16 -22 29 -36 29 -31 0 19 -68 93 -150 165 -47
41 -101 93 -120 116 -39 47 -45 50 -54 27z"/>
<path d="M2797 4292 c18 -34 88 -103 177 -176 25 -21 54 -52 63 -70 8 -17 17
-33 20 -36 5 -6 23 21 23 35 0 6 -5 3 -10 -5 -9 -13 -11 -13 -19 0 -26 43 -71
90 -107 114 -41 26 -95 80 -142 141 l-23 30 18 -33z"/>
<path d="M3101 4268 c-7 -18 -14 -73 -16 -123 l-4 -90 9 88 c5 48 13 102 19
119 6 17 9 33 7 35 -2 2 -9 -11 -15 -29z"/>
<path d="M4992 4255 c0 -16 2 -22 5 -12 2 9 2 23 0 30 -3 6 -5 -1 -5 -18z"/>
<path d="M2700 4164 l0 -96 -57 52 c-63 55 -138 97 -193 105 -23 4 -14 -1 23
-14 69 -23 123 -57 189 -119 l48 -45 0 107 c0 58 -2 106 -5 106 -3 0 -5 -43
-5 -96z"/>
<path d="M2320 4231 c0 -8 79 -3 89 5 2 2 -17 4 -42 4 -26 0 -47 -4 -47 -9z"/>
<path d="M3531 4180 c-16 -34 -37 -90 -46 -125 -11 -38 -22 -62 -28 -58 -6 4
-8 0 -4 -11 4 -10 7 -20 7 -22 0 -2 5 -4 10 -4 6 0 10 11 10 24 0 33 38 152
66 209 14 26 22 47 19 47 -3 0 -19 -27 -34 -60z"/>
<path d="M2340 4217 c0 -4 13 -22 30 -40 16 -17 46 -60 66 -94 46 -79 56 -82
14 -5 -30 55 -109 156 -110 139z"/>
<path d="M4643 4155 c0 -22 2 -30 4 -17 2 12 2 30 0 40 -3 9 -5 -1 -4 -23z"/>
<path d="M2495 3980 c9 -16 18 -30 21 -30 2 0 -2 14 -11 30 -9 17 -18 30 -21
30 -2 0 2 -13 11 -30z"/>
<path d="M4415 3699 c-38 -11 -124 -28 -190 -38 -66 -11 -106 -20 -90 -20 62
-2 345 55 363 73 8 9 -6 6 -83 -15z"/>
<path d="M3053 3653 c9 -2 25 -2 35 0 9 3 1 5 -18 5 -19 0 -27 -2 -17 -5z"/>
<path d="M3160 3640 c57 -8 187 -13 179 -6 -2 2 -56 6 -119 9 -76 3 -97 2 -60
-3z"/>
<path d="M3993 3633 c20 -2 54 -2 75 0 20 2 3 4 -38 4 -41 0 -58 -2 -37 -4z"/>
<path d="M3503 3623 c81 -2 213 -2 295 0 81 1 14 3 -148 3 -162 0 -229 -2
-147 -3z"/>
</g>
</svg>
