<?xml version="1.0" encoding="UTF-8"?>
<!DOCTYPE svg PUBLIC "-//W3C//DTD SVG 1.1//EN" "http://www.w3.org/Graphics/SVG/1.1/DTD/svg11.dtd">
<svg xmlns="http://www.w3.org/2000/svg" version="1.1" width="693px" height="813px" style="shape-rendering:geometricPrecision; text-rendering:geometricPrecision; image-rendering:optimizeQuality; fill-rule:evenodd; clip-rule:evenodd" xmlns:xlink="http://www.w3.org/1999/xlink">
<g><path style="opacity:1" fill="#fdfdfd" d="M -0.5,-0.5 C 230.5,-0.5 461.5,-0.5 692.5,-0.5C 692.5,270.5 692.5,541.5 692.5,812.5C 461.5,812.5 230.5,812.5 -0.5,812.5C -0.5,541.5 -0.5,270.5 -0.5,-0.5 Z"/></g>
<g><path style="opacity:1" fill="#f9f9f9" d="M 394.5,27.5 C 403.765,26.9054 412.765,27.5721 421.5,29.5C 421.5,31.1667 421.5,32.8333 421.5,34.5C 400.841,33.7948 380.174,33.4614 359.5,33.5C 359.643,31.7376 359.309,30.0709 358.5,28.5C 370.482,27.501 382.482,27.1677 394.5,27.5 Z"/></g>
<g><path style="opacity:1" fill="#f4f4f4" d="M 314.5,27.5 C 322.5,27.5 330.5,27.5 338.5,27.5C 338.5,29.5 338.5,31.5 338.5,33.5C 317.112,33.4201 295.779,34.4201 274.5,36.5C 274.326,34.139 273.993,31.8056 273.5,29.5C 286.976,28.0839 300.642,27.4172 314.5,27.5 Z"/></g>
<g><path style="opacity:1" fill="#1e1e1e" d="M 298.5,26.5 C 304.026,26.1786 309.36,26.5119 314.5,27.5C 300.642,27.4172 286.976,28.0839 273.5,29.5C 272.833,29.5 272.167,29.5 271.5,29.5C 270.833,29.5 270.5,29.1667 270.5,28.5C 270.5,27.8333 270.833,27.5 271.5,27.5C 280.479,26.7345 289.479,26.4011 298.5,26.5 Z"/></g>
<g><path style="opacity:1" fill="#252525" d="M 357.5,26.5 C 366.986,25.5062 376.652,25.1729 386.5,25.5C 397.167,25.5 407.833,25.5 418.5,25.5C 419.167,25.5 419.833,25.5 420.5,25.5C 421.434,26.5676 421.768,27.901 421.5,29.5C 412.765,27.5721 403.765,26.9054 394.5,27.5C 382.345,26.5048 370.011,26.1714 357.5,26.5 Z"/></g>
<g><path style="opacity:1" fill="#101010" d="M 338.5,24.5 C 338.833,24.5 339.167,24.5 339.5,24.5C 339.737,25.791 339.404,26.791 338.5,27.5C 333.167,26.8333 327.833,26.1667 322.5,25.5C 328.026,25.8214 333.36,25.4881 338.5,24.5 Z"/></g>
<g><path style="opacity:1" fill="#494949" d="M 298.5,26.5 C 306.316,25.5076 314.316,25.1743 322.5,25.5C 327.833,26.1667 333.167,26.8333 338.5,27.5C 330.5,27.5 322.5,27.5 314.5,27.5C 309.36,26.5119 304.026,26.1786 298.5,26.5 Z"/></g>
<g><path style="opacity:1" fill="#838383" d="M 266.5,22.5 C 268.816,23.422 270.483,25.0887 271.5,27.5C 270.833,27.5 270.5,27.8333 270.5,28.5C 268.782,26.7772 267.449,24.7772 266.5,22.5 Z"/></g>
<g><path style="opacity:1" fill="#808080" d="M 254.5,23.5 C 256.25,24.6594 257.25,26.326 257.5,28.5C 256.833,28.5 256.167,28.5 255.5,28.5C 254.962,26.8828 254.629,25.2161 254.5,23.5 Z"/></g>
<g><path style="opacity:1" fill="#888888" d="M 429.5,21.5 C 432.167,22.1667 433.833,23.8333 434.5,26.5C 434.5,26.8333 434.5,27.1667 434.5,27.5C 432.11,26.1092 430.443,24.1092 429.5,21.5 Z"/></g>
<g><path style="opacity:1" fill="#7c7c7c" d="M 429.5,21.5 C 425.63,19.9831 421.796,18.3164 418,16.5C 417.5,16.8333 417,17.1667 416.5,17.5C 418.372,19.9099 419.705,22.5766 420.5,25.5C 419.833,25.5 419.167,25.5 418.5,25.5C 417.372,21.9099 415.705,18.5766 413.5,15.5C 414.333,15.1667 415.167,14.8333 416,14.5C 419.877,15.8539 423.71,17.3539 427.5,19C 428.381,19.7083 429.047,20.5416 429.5,21.5 Z"/></g>
<g><path style="opacity:1" fill="#f9f9f9" d="M 429.5,21.5 C 430.443,24.1092 432.11,26.1092 434.5,27.5C 434.5,28.1667 434.833,28.5 435.5,28.5C 438.777,35.2743 439.277,42.2743 437,49.5C 433.23,55.7101 430.563,62.3767 429,69.5C 428.333,73.1667 428.333,76.8333 429,80.5C 429.374,82.4913 430.207,84.158 431.5,85.5C 431.906,87.1092 431.906,88.4425 431.5,89.5C 420.124,82.4011 415.457,72.0678 417.5,58.5C 421.687,50.0646 423.52,41.0646 423,31.5C 422.722,30.5842 422.222,29.9175 421.5,29.5C 421.768,27.901 421.434,26.5676 420.5,25.5C 419.705,22.5766 418.372,19.9099 416.5,17.5C 417,17.1667 417.5,16.8333 418,16.5C 421.796,18.3164 425.63,19.9831 429.5,21.5 Z"/></g>
<g><path style="opacity:1" fill="#7d7d7d" d="M 266.5,22.5 C 262.229,20.1172 257.729,18.1172 253,16.5C 252.5,16.6667 252,16.8333 251.5,17C 253.219,18.8705 254.219,21.0372 254.5,23.5C 251.667,20.503 250,17.1697 249.5,13.5C 255.958,15.2262 261.625,18.2262 266.5,22.5 Z"/></g>
<g><path style="opacity:1" fill="#f9f9f9" d="M 357.5,26.5 C 357.593,32.8627 357.26,39.1961 356.5,45.5C 349.306,54.9375 346.139,65.6042 347,77.5C 347.322,80.6663 348.489,83.333 350.5,85.5C 350.539,86.5832 350.873,87.5832 351.5,88.5C 351,88.8333 350.5,89.1667 350,89.5C 342.469,85.6334 337.469,79.6334 335,71.5C 333.672,66.5576 333.339,61.5576 334,56.5C 335.974,50.2724 337.474,43.9391 338.5,37.5C 340.256,33.2272 340.59,28.8939 339.5,24.5C 338.747,17.9099 336.413,11.9099 332.5,6.5C 344.664,8.11467 352.998,14.7813 357.5,26.5 Z"/></g>
<g><path style="opacity:1" fill="#7c7c7c" d="M 386.5,25.5 C 376.652,25.1729 366.986,25.5062 357.5,26.5C 352.998,14.7813 344.664,8.11467 332.5,6.5C 336.413,11.9099 338.747,17.9099 339.5,24.5C 339.167,24.5 338.833,24.5 338.5,24.5C 337.13,17.0936 334.13,10.427 329.5,4.5C 339.281,4.80512 347.447,8.80512 354,16.5C 355.993,18.8175 357.159,21.4842 357.5,24.5C 367.348,24.1729 377.014,24.5062 386.5,25.5 Z"/></g>
<g><path style="opacity:1" fill="#7d7d7d" d="M 357.5,26.5 C 370.011,26.1714 382.345,26.5048 394.5,27.5C 382.482,27.1677 370.482,27.501 358.5,28.5C 359.309,30.0709 359.643,31.7376 359.5,33.5C 380.174,33.4614 400.841,33.7948 421.5,34.5C 421.5,32.8333 421.5,31.1667 421.5,29.5C 422.222,29.9175 422.722,30.5842 423,31.5C 423.52,41.0646 421.687,50.0646 417.5,58.5C 417.167,58.5 416.833,58.5 416.5,58.5C 419.108,51.4002 420.775,44.0668 421.5,36.5C 400.856,35.3514 380.189,34.6847 359.5,34.5C 359.118,38.4456 358.118,42.1122 356.5,45.5C 357.26,39.1961 357.593,32.8627 357.5,26.5 Z"/></g>
<g><path style="opacity:1" fill="#fcfcfc" d="M 338.5,37.5 C 333.623,47.1712 331.623,57.5045 332.5,68.5C 310.489,68.3304 288.489,68.6637 266.5,69.5C 268.554,62.3957 270.887,55.3957 273.5,48.5C 275.217,45.1552 275.884,41.4885 275.5,37.5C 296.498,36.465 317.498,35.465 338.5,34.5C 338.5,35.5 338.5,36.5 338.5,37.5 Z"/></g>
<g><path style="opacity:1" fill="#fdfdfd" d="M 416.5,58.5 C 416.5,59.5 416.5,60.5 416.5,61.5C 415.539,63.2646 415.205,65.2646 415.5,67.5C 393.167,67.5 370.833,67.5 348.5,67.5C 350.639,59.9049 353.306,52.5716 356.5,45.5C 358.118,42.1122 359.118,38.4456 359.5,34.5C 380.189,34.6847 400.856,35.3514 421.5,36.5C 420.775,44.0668 419.108,51.4002 416.5,58.5 Z"/></g>
<g><path style="opacity:1" fill="#747474" d="M 339.5,24.5 C 340.59,28.8939 340.256,33.2272 338.5,37.5C 338.5,36.5 338.5,35.5 338.5,34.5C 317.498,35.465 296.498,36.465 275.5,37.5C 275.884,41.4885 275.217,45.1552 273.5,48.5C 273.919,42.0141 273.252,35.6808 271.5,29.5C 272.167,29.5 272.833,29.5 273.5,29.5C 273.993,31.8056 274.326,34.139 274.5,36.5C 295.779,34.4201 317.112,33.4201 338.5,33.5C 338.5,31.5 338.5,29.5 338.5,27.5C 339.404,26.791 339.737,25.791 339.5,24.5 Z"/></g>
<g><path style="opacity:1" fill="#fcfcfc" d="M 514.5,44.5 C 535.35,48.9525 555.35,56.1192 574.5,66C 582.119,70.5639 588.619,76.3972 594,83.5C 600.679,94.6021 601.179,105.935 595.5,117.5C 592.833,120.833 589.833,123.833 586.5,126.5C 585.85,126.804 585.183,127.137 584.5,127.5C 583.833,124.023 583.166,120.689 582.5,117.5C 578.164,107.659 571.164,100.159 561.5,95C 549.065,88.7997 536.065,84.2997 522.5,81.5C 499.131,74.5752 475.131,70.9086 450.5,70.5C 444.395,69.0035 438.062,68.3369 431.5,68.5C 433.412,61.3322 435.912,54.3322 439,47.5C 439.498,44.1832 439.665,40.8499 439.5,37.5C 464.596,38.8429 489.596,41.1763 514.5,44.5 Z"/></g>
<g><path style="opacity:1" fill="#fcfcfc" d="M 234.5,73.5 C 231.615,73.1936 228.948,73.5269 226.5,74.5C 214.044,75.4648 201.711,77.2981 189.5,80C 180.087,81.9034 171.087,84.7368 162.5,88.5C 154.693,90.0798 147.359,92.7464 140.5,96.5C 137.088,97.0421 134.088,98.3754 131.5,100.5C 118.807,104.526 110.474,112.859 106.5,125.5C 105.132,127.564 104.132,129.898 103.5,132.5C 93.7005,128.865 86.2005,122.532 81,113.5C 80.3333,111.167 80.3333,108.833 81,106.5C 83.0892,101.311 85.9225,96.6439 89.5,92.5C 104.924,80.7846 121.591,71.1179 139.5,63.5C 157.675,57.3273 176.008,51.9939 194.5,47.5C 202.7,46.6692 210.7,45.3359 218.5,43.5C 231.184,42.3312 243.851,40.9979 256.5,39.5C 255.904,46.3629 254.404,53.0295 252,59.5C 251.501,63.4862 251.334,67.4862 251.5,71.5C 245.611,71.4497 239.944,72.1164 234.5,73.5 Z"/></g>
<g><path style="opacity:1" fill="#6f6f6f" d="M 218.5,43.5 C 210.7,45.3359 202.7,46.6692 194.5,47.5C 202.197,45.1061 210.197,43.7727 218.5,43.5 Z"/></g>
<g><path style="opacity:1" fill="#717171" d="M 194.5,47.5 C 176.008,51.9939 157.675,57.3273 139.5,63.5C 146.2,60.2042 153.2,57.3709 160.5,55C 166.595,53.6432 172.595,51.9765 178.5,50C 183.773,48.7117 189.106,47.8784 194.5,47.5 Z"/></g>
<g><path style="opacity:1" fill="#787878" d="M 514.5,44.5 C 539.86,48.1181 563.194,56.9514 584.5,71C 591.678,77.1674 596.845,84.6674 600,93.5C 600.667,98.8333 600.667,104.167 600,109.5C 599.246,112.684 597.746,115.351 595.5,117.5C 601.179,105.935 600.679,94.6021 594,83.5C 588.619,76.3972 582.119,70.5639 574.5,66C 555.35,56.1192 535.35,48.9525 514.5,44.5 Z"/></g>
<g><path style="opacity:1" fill="#717171" d="M 435.5,28.5 C 436.167,28.5 436.833,28.5 437.5,28.5C 437.756,30.9372 438.423,33.2706 439.5,35.5C 459.17,37.2781 478.836,39.1114 498.5,41C 504.158,41.2515 509.492,42.4181 514.5,44.5C 489.596,41.1763 464.596,38.8429 439.5,37.5C 439.665,40.8499 439.498,44.1832 439,47.5C 435.912,54.3322 433.412,61.3322 431.5,68.5C 438.062,68.3369 444.395,69.0035 450.5,70.5C 443.5,70.5 436.5,70.5 429.5,70.5C 429.431,75.6156 430.098,80.6156 431.5,85.5C 430.207,84.158 429.374,82.4913 429,80.5C 428.333,76.8333 428.333,73.1667 429,69.5C 430.563,62.3767 433.23,55.7101 437,49.5C 439.277,42.2743 438.777,35.2743 435.5,28.5 Z"/></g>
<g><path style="opacity:1" fill="#686868" d="M 356.5,45.5 C 353.306,52.5716 350.639,59.9049 348.5,67.5C 370.994,68.4975 393.661,68.8308 416.5,68.5C 416.5,66.1667 416.5,63.8333 416.5,61.5C 416.5,60.5 416.5,59.5 416.5,58.5C 416.833,58.5 417.167,58.5 417.5,58.5C 415.457,72.0678 420.124,82.4011 431.5,89.5C 431.906,88.4425 431.906,87.1092 431.5,85.5C 433.179,86.9997 434.512,88.833 435.5,91C 427.998,90.311 422.498,86.4777 419,79.5C 417.648,76.2799 416.814,72.9466 416.5,69.5C 393.5,69.5 370.5,69.5 347.5,69.5C 347.988,74.9384 348.988,80.2718 350.5,85.5C 348.489,83.333 347.322,80.6663 347,77.5C 346.139,65.6042 349.306,54.9375 356.5,45.5 Z"/></g>
<g><path style="opacity:1" fill="#bababa" d="M 416.5,61.5 C 416.5,63.8333 416.5,66.1667 416.5,68.5C 393.661,68.8308 370.994,68.4975 348.5,67.5C 370.833,67.5 393.167,67.5 415.5,67.5C 415.205,65.2646 415.539,63.2646 416.5,61.5 Z"/></g>
<g><path style="opacity:1" fill="#6f6f6f" d="M 273.5,48.5 C 270.887,55.3957 268.554,62.3957 266.5,69.5C 288.489,68.6637 310.489,68.3304 332.5,68.5C 331.623,57.5045 333.623,47.1712 338.5,37.5C 337.474,43.9391 335.974,50.2724 334,56.5C 333.339,61.5576 333.672,66.5576 335,71.5C 337.469,79.6334 342.469,85.6334 350,89.5C 350.5,89.1667 351,88.8333 351.5,88.5C 350.873,87.5832 350.539,86.5832 350.5,85.5C 352.179,86.9997 353.512,88.833 354.5,91C 350.671,91.7576 347.338,90.7576 344.5,88C 338.386,83.2706 334.72,77.1039 333.5,69.5C 310.795,69.2218 288.128,69.8884 265.5,71.5C 264.786,78.8566 266.786,85.3566 271.5,91C 265.323,91.3268 260.489,88.8268 257,83.5C 254.928,80.0288 253.428,76.3621 252.5,72.5C 246.516,73.0742 240.516,73.4075 234.5,73.5C 239.944,72.1164 245.611,71.4497 251.5,71.5C 251.334,67.4862 251.501,63.4862 252,59.5C 254.404,53.0295 255.904,46.3629 256.5,39.5C 243.851,40.9979 231.184,42.3312 218.5,43.5C 221.534,41.9823 224.867,41.1489 228.5,41C 238.123,39.5886 247.789,38.7553 257.5,38.5C 259.18,34.8784 259.013,37.8784 257,47.5C 251.233,58.574 251.233,69.574 257,80.5C 259.387,84.5534 262.72,87.5534 267,89.5C 266.981,86.7559 266.314,84.0893 265,81.5C 264.333,76.5 264.333,71.5 265,66.5C 267.608,60.2881 270.442,54.2881 273.5,48.5 Z"/></g>
<g><path style="opacity:1" fill="#fcfcfc" d="M 350.5,85.5 C 348.988,80.2718 347.988,74.9384 347.5,69.5C 370.5,69.5 393.5,69.5 416.5,69.5C 416.814,72.9466 417.648,76.2799 419,79.5C 422.498,86.4777 427.998,90.311 435.5,91C 434.512,88.833 433.179,86.9997 431.5,85.5C 430.098,80.6156 429.431,75.6156 429.5,70.5C 436.5,70.5 443.5,70.5 450.5,70.5C 474.538,73.1745 498.538,76.8411 522.5,81.5C 535.392,85.4137 548.059,90.247 560.5,96C 569.691,101.359 577.024,108.525 582.5,117.5C 582.737,121.273 582.237,124.94 581,128.5C 574.979,132.258 568.812,135.591 562.5,138.5C 550.886,141.153 539.219,143.653 527.5,146C 503.405,148.611 479.405,150.445 455.5,151.5C 400.516,153.184 345.516,153.851 290.5,153.5C 268.006,152.503 245.339,152.169 222.5,152.5C 194.255,152.258 166.255,149.591 138.5,144.5C 136.22,142.777 133.553,142.111 130.5,142.5C 122.588,139.526 114.588,136.526 106.5,133.5C 106.051,130.956 106.051,128.29 106.5,125.5C 108.812,120.89 111.645,116.557 115,112.5C 119.948,107.622 125.448,103.622 131.5,100.5C 134.912,99.9579 137.912,98.6246 140.5,96.5C 148.126,94.4047 155.459,91.738 162.5,88.5C 183.698,82.6626 205.031,77.9959 226.5,74.5C 228.948,73.5269 231.615,73.1936 234.5,73.5C 240.516,73.4075 246.516,73.0742 252.5,72.5C 253.428,76.3621 254.928,80.0288 257,83.5C 260.489,88.8268 265.323,91.3268 271.5,91C 266.786,85.3566 264.786,78.8566 265.5,71.5C 288.128,69.8884 310.795,69.2218 333.5,69.5C 334.72,77.1039 338.386,83.2706 344.5,88C 347.338,90.7576 350.671,91.7576 354.5,91C 353.512,88.833 352.179,86.9997 350.5,85.5 Z"/></g>
<g><path style="opacity:1" fill="#777777" d="M 450.5,70.5 C 475.131,70.9086 499.131,74.5752 522.5,81.5C 498.538,76.8411 474.538,73.1745 450.5,70.5 Z"/></g>
<g><path style="opacity:1" fill="#787878" d="M 139.5,63.5 C 121.591,71.1179 104.924,80.7846 89.5,92.5C 90.9093,90.5831 92.576,88.7498 94.5,87C 108.384,77.0579 123.384,69.2245 139.5,63.5 Z"/></g>
<g><path style="opacity:1" fill="#747474" d="M 226.5,74.5 C 205.031,77.9959 183.698,82.6626 162.5,88.5C 171.087,84.7368 180.087,81.9034 189.5,80C 201.711,77.2981 214.044,75.4648 226.5,74.5 Z"/></g>
<g><path style="opacity:1" fill="#737373" d="M 522.5,81.5 C 536.065,84.2997 549.065,88.7997 561.5,95C 571.164,100.159 578.164,107.659 582.5,117.5C 577.024,108.525 569.691,101.359 560.5,96C 548.059,90.247 535.392,85.4137 522.5,81.5 Z"/></g>
<g><path style="opacity:1" fill="#666666" d="M 504.5,89.5 C 502.162,91.0395 499.495,91.7062 496.5,91.5C 498.78,89.7773 501.447,89.1107 504.5,89.5 Z"/></g>
<g><path style="opacity:1" fill="#686868" d="M 504.5,89.5 C 509.65,88.3493 514.984,88.1826 520.5,89C 524.264,89.8523 527.597,91.3523 530.5,93.5C 522.166,90.2347 513.499,88.9013 504.5,89.5 Z"/></g>
<g><path style="opacity:1" fill="#737373" d="M 162.5,88.5 C 155.459,91.738 148.126,94.4047 140.5,96.5C 147.359,92.7464 154.693,90.0798 162.5,88.5 Z"/></g>
<g><path style="opacity:1" fill="#717171" d="M 306.5,84.5 C 314.566,83.1837 319.566,86.3504 321.5,94C 320.833,95.3333 319.833,96.3333 318.5,97C 312.719,97.9032 307.053,97.5699 301.5,96C 300.531,91.0978 302.198,87.2644 306.5,84.5 Z"/></g>
<g><path style="opacity:1" fill="#f6f6f6" d="M 307.5,85.5 C 314.557,84.7476 318.39,87.7476 319,94.5C 313.604,96.9541 308.104,97.1207 302.5,95C 302.126,90.9197 303.792,87.753 307.5,85.5 Z"/></g>
<g><path style="opacity:1" fill="#5d5d5d" d="M 496.5,91.5 C 494.786,92.7384 492.786,93.405 490.5,93.5C 492.102,91.9261 494.102,91.2594 496.5,91.5 Z"/></g>
<g><path style="opacity:1" fill="#f5f5f5" d="M 378.5,105.5 C 377.722,104.844 377.056,104.011 376.5,103C 377.32,101.2 377.986,99.3664 378.5,97.5C 384.469,95.0966 388.803,96.7633 391.5,102.5C 390.286,104.069 388.619,104.902 386.5,105C 383.854,105.497 381.187,105.664 378.5,105.5 Z"/></g>
<g><path style="opacity:1" fill="#727272" d="M 178.5,97.5 C 182.893,95.8496 187.56,94.6829 192.5,94C 209.109,91.8181 225.775,91.1514 242.5,92C 248.6,92.9053 254.6,94.2386 260.5,96C 281.436,104.484 303.103,109.984 325.5,112.5C 316.387,113.429 307.387,112.596 298.5,110C 278.933,102.775 258.933,97.1085 238.5,93C 230.833,92.3333 223.167,92.3333 215.5,93C 203.097,94.1002 190.763,95.6002 178.5,97.5 Z"/></g>
<g><path style="opacity:1" fill="#6c6c6c" d="M 140.5,96.5 C 137.912,98.6246 134.912,99.9579 131.5,100.5C 134.088,98.3754 137.088,97.0421 140.5,96.5 Z"/></g>
<g><path style="opacity:1" fill="#767676" d="M 178.5,97.5 C 176.162,99.0395 173.495,99.7062 170.5,99.5C 172.78,97.7773 175.447,97.1107 178.5,97.5 Z"/></g>
<g><path style="opacity:1" fill="#6f6f6f" d="M 378.5,105.5 C 381.187,105.664 383.854,105.497 386.5,105C 388.619,104.902 390.286,104.069 391.5,102.5C 388.803,96.7633 384.469,95.0966 378.5,97.5C 381.191,94.0005 384.524,93.5005 388.5,96C 391.962,98.2393 393.295,101.406 392.5,105.5C 387.688,106.678 383.021,106.678 378.5,105.5 Z"/></g>
<g><path style="opacity:1" fill="#7a7a7a" d="M 530.5,93.5 C 535.388,94.9469 539.721,97.4469 543.5,101C 545.16,102.488 546.16,104.321 546.5,106.5C 541.722,101.379 536.388,97.0456 530.5,93.5 Z"/></g>
<g><path style="opacity:1" fill="#707070" d="M 490.5,93.5 C 475.174,100.666 459.174,102.832 442.5,100C 453.195,100.665 463.861,99.9988 474.5,98C 479.713,95.9835 485.046,94.4835 490.5,93.5 Z"/></g>
<g><path style="opacity:1" fill="#787878" d="M 131.5,100.5 C 125.448,103.622 119.948,107.622 115,112.5C 111.645,116.557 108.812,120.89 106.5,125.5C 110.474,112.859 118.807,104.526 131.5,100.5 Z"/></g>
<g><path style="opacity:1" fill="#727272" d="M 228.5,109.5 C 217.103,100.673 206.77,101.673 197.5,112.5C 200.193,105.553 205.359,101.886 213,101.5C 217.015,102.06 220.848,103.227 224.5,105C 226.635,105.876 227.969,107.376 228.5,109.5 Z"/></g>
<g><path style="opacity:1" fill="#727272" d="M 170.5,99.5 C 163.593,102.287 156.927,105.62 150.5,109.5C 150.414,108.504 150.748,107.671 151.5,107C 157.403,103.381 163.736,100.881 170.5,99.5 Z"/></g>
<g><path style="opacity:1" fill="#fafafa" d="M 228.5,109.5 C 229.866,112.232 231.199,114.899 232.5,117.5C 232.5,119.5 232.5,121.5 232.5,123.5C 221.891,125.936 211.224,126.103 200.5,124C 198.695,123.028 197.028,121.861 195.5,120.5C 196.482,117.904 197.149,115.238 197.5,112.5C 206.77,101.673 217.103,100.673 228.5,109.5 Z"/></g>
<g><path style="opacity:1" fill="#686868" d="M 378.5,97.5 C 377.986,99.3664 377.32,101.2 376.5,103C 377.056,104.011 377.722,104.844 378.5,105.5C 377.5,105.5 376.5,105.5 375.5,105.5C 374.828,102.058 375.828,99.3914 378.5,97.5 Z"/></g>
<g><path style="opacity:1" fill="#f8f8f8" d="M 232.5,117.5 C 232.416,114.673 231.75,112.006 230.5,109.5C 234.78,108.46 239.113,108.294 243.5,109C 248.34,111.517 250.34,115.351 249.5,120.5C 244.658,122.41 239.658,122.91 234.5,122C 233.901,120.378 233.234,118.878 232.5,117.5 Z"/></g>
<g><path style="opacity:1" fill="#757575" d="M 150.5,109.5 C 149.109,111.792 148.109,114.292 147.5,117C 148.021,120.066 149.021,122.899 150.5,125.5C 147.477,123.809 146.144,121.142 146.5,117.5C 146.594,115.077 147.094,112.744 148,110.5C 148.671,109.748 149.504,109.414 150.5,109.5 Z"/></g>
<g><path style="opacity:1" fill="#6c6c6c" d="M 445.5,110.5 C 449.595,110.808 453.595,111.641 457.5,113C 458.056,113.383 458.389,113.883 458.5,114.5C 453.835,113.922 449.501,112.589 445.5,110.5 Z"/></g>
<g><path style="opacity:1" fill="#6b6b6b" d="M 228.5,109.5 C 229.167,109.5 229.833,109.5 230.5,109.5C 231.75,112.006 232.416,114.673 232.5,117.5C 231.199,114.899 229.866,112.232 228.5,109.5 Z"/></g>
<g><path style="opacity:1" fill="#7c7c7c" d="M 503.5,100.5 C 510.033,102.024 513.7,106.191 514.5,113C 514.415,114.107 514.081,115.107 513.5,116C 502.87,120.777 492.37,120.611 482,115.5C 483.287,103.258 490.121,97.7581 502.5,99C 503.056,99.3826 503.389,99.8826 503.5,100.5 Z"/></g>
<g><path style="opacity:1" fill="#fafafa" d="M 503.5,100.5 C 516.993,111.44 514.993,117.106 497.5,117.5C 492.672,117.643 488.005,116.976 483.5,115.5C 484.987,103.687 491.654,98.6871 503.5,100.5 Z"/></g>
<g><path style="opacity:1" fill="#787878" d="M 546.5,106.5 C 550.648,111.172 550.315,115.672 545.5,120C 539.204,123.831 532.537,125.664 525.5,125.5C 532.743,124.475 539.41,121.975 545.5,118C 547.84,114.427 548.173,110.594 546.5,106.5 Z"/></g>
<g><path style="opacity:1" fill="#7e7e7e" d="M 595.5,117.5 C 594.167,122.167 591.167,125.167 586.5,126.5C 589.833,123.833 592.833,120.833 595.5,117.5 Z"/></g>
<g><path style="opacity:1" fill="#6f6f6f" d="M 197.5,112.5 C 197.149,115.238 196.482,117.904 195.5,120.5C 197.028,121.861 198.695,123.028 200.5,124C 211.224,126.103 221.891,125.936 232.5,123.5C 232.5,121.5 232.5,119.5 232.5,117.5C 233.234,118.878 233.901,120.378 234.5,122C 239.658,122.91 244.658,122.41 249.5,120.5C 250.34,115.351 248.34,111.517 243.5,109C 239.113,108.294 234.78,108.46 230.5,109.5C 239.326,104.14 246.159,106.14 251,115.5C 251.667,117.5 251.667,119.5 251,121.5C 239.109,123.021 227.276,125.021 215.5,127.5C 208.987,127.228 202.654,126.062 196.5,124C 193.998,119.982 194.331,116.149 197.5,112.5 Z"/></g>
<g><path style="opacity:1" fill="#6d6d6d" d="M 285.5,123.5 C 286.873,123.343 288.207,123.51 289.5,124C 287.253,125.309 284.92,125.975 282.5,126C 283.571,125.148 284.571,124.315 285.5,123.5 Z"/></g>
<g><path style="opacity:1" fill="#737373" d="M 445.5,110.5 C 436.494,110.334 427.494,110.5 418.5,111C 405.064,113.923 391.73,117.257 378.5,121C 370.572,122.766 362.572,124.099 354.5,125C 333.15,125.153 311.817,124.486 290.5,123C 293.575,121.993 296.742,121.493 300,121.5C 316.488,122.916 332.988,123.75 349.5,124C 359.952,123.11 370.286,121.443 380.5,119C 394.278,114.722 408.278,111.389 422.5,109C 430.385,108.278 438.051,108.778 445.5,110.5 Z"/></g>
<g><path style="opacity:1" fill="#7a7a7a" d="M 422.5,120.5 C 433.402,120.067 438.402,125.067 437.5,135.5C 429.214,137.919 420.881,138.085 412.5,136C 411.437,131.078 412.771,126.745 416.5,123C 418.723,122.434 420.723,121.6 422.5,120.5 Z"/></g>
<g><path style="opacity:1" fill="#fafafa" d="M 420.5,122.5 C 428.36,120.566 433.86,123.232 437,130.5C 437.781,131.944 437.614,133.277 436.5,134.5C 429.217,136.901 421.883,137.068 414.5,135C 413.424,133.274 413.257,131.441 414,129.5C 415.694,126.642 417.861,124.309 420.5,122.5 Z"/></g>
<g><path style="opacity:1" fill="#7d7d7d" d="M 582.5,117.5 C 583.166,120.689 583.833,124.023 584.5,127.5C 585.183,127.137 585.85,126.804 586.5,126.5C 586.586,127.496 586.252,128.329 585.5,129C 578.211,133.042 570.544,136.209 562.5,138.5C 568.812,135.591 574.979,132.258 581,128.5C 582.237,124.94 582.737,121.273 582.5,117.5 Z"/></g>
<g><path style="opacity:1" fill="#727272" d="M 89.5,92.5 C 85.9225,96.6439 83.0892,101.311 81,106.5C 80.3333,108.833 80.3333,111.167 81,113.5C 86.2005,122.532 93.7005,128.865 103.5,132.5C 104.132,129.898 105.132,127.564 106.5,125.5C 106.051,128.29 106.051,130.956 106.5,133.5C 114.588,136.526 122.588,139.526 130.5,142.5C 115.039,139.436 100.705,133.603 87.5,125C 77.3585,115.412 76.8585,105.245 86,94.5C 86.8159,93.1772 87.9826,92.5106 89.5,92.5 Z"/></g>
<g><path style="opacity:1" fill="#717171" d="M 150.5,125.5 C 158.899,131.247 168.233,134.747 178.5,136C 197.185,136.929 215.852,138.096 234.5,139.5C 250.374,138.236 250.374,138.903 234.5,141.5C 215.23,139.24 195.897,137.74 176.5,137C 167.595,135.587 159.262,132.587 151.5,128C 150.748,127.329 150.414,126.496 150.5,125.5 Z"/></g>
<g><path style="opacity:1" fill="#7a7a7a" d="M 458.5,114.5 C 467.199,115.66 472.866,120.326 475.5,128.5C 473.022,136.462 467.522,141.128 459,142.5C 458.5,142.167 458,141.833 457.5,141.5C 465.67,140.268 471.337,135.934 474.5,128.5C 474.06,125.786 472.726,123.62 470.5,122C 466.604,119.225 462.604,116.725 458.5,114.5 Z"/></g>
<g><path style="opacity:1" fill="#838383" d="M 130.5,142.5 C 133.553,142.111 136.22,142.777 138.5,144.5C 135.447,144.889 132.78,144.223 130.5,142.5 Z"/></g>
<g><path style="opacity:1" fill="#767676" d="M 562.5,138.5 C 552.254,142.391 541.588,145.224 530.5,147C 506.578,149.868 482.578,151.701 458.5,152.5C 457.791,151.596 456.791,151.263 455.5,151.5C 479.405,150.445 503.405,148.611 527.5,146C 539.219,143.653 550.886,141.153 562.5,138.5 Z"/></g>
<g><path style="opacity:1" fill="#6d6d6d" d="M 138.5,144.5 C 166.255,149.591 194.255,152.258 222.5,152.5C 218.702,153.483 214.702,153.817 210.5,153.5C 192.446,152.688 174.446,151.188 156.5,149C 150.263,147.815 144.263,146.315 138.5,144.5 Z"/></g>
<g><path style="opacity:1" fill="#b5b5b5" d="M 222.5,152.5 C 245.339,152.169 268.006,152.503 290.5,153.5C 271.659,153.17 252.993,153.503 234.5,154.5C 226.316,154.826 218.316,154.492 210.5,153.5C 214.702,153.817 218.702,153.483 222.5,152.5 Z"/></g>
<g><path style="opacity:1" fill="#5e5e5e" d="M 455.5,151.5 C 456.791,151.263 457.791,151.596 458.5,152.5C 383.85,154.332 309.183,154.999 234.5,154.5C 252.993,153.503 271.659,153.17 290.5,153.5C 345.516,153.851 400.516,153.184 455.5,151.5 Z"/></g>
<g><path style="opacity:1" fill="#2f2f2f" d="M 255.5,28.5 C 256.167,28.5 256.833,28.5 257.5,28.5C 256.848,29.7251 255.681,30.3917 254,30.5C 199.517,34.3947 147.017,46.5613 96.5,67C 80.8493,74.0628 66.6826,83.2294 54,94.5C 36.5086,113.789 34.1753,134.789 47,157.5C 53.6153,167.116 60.6153,176.45 68,185.5C 76.9379,203.952 81.4379,223.452 81.5,244C 81.1327,256.298 79.9661,268.465 78,280.5C 89.8975,290.39 99.5641,302.057 107,315.5C 110.975,336.856 102.142,347.022 80.5,346C 78.7536,345.529 77.087,344.862 75.5,344C 71.355,340.185 67.5216,336.019 64,331.5C 47.6992,386.617 35.0326,442.617 26,499.5C 22.1582,533.096 21.4916,566.763 24,600.5C 25.8086,631.92 34.4753,661.253 50,688.5C 67.3404,712.503 89.5071,730.669 116.5,743C 150.023,757.631 185.023,766.798 221.5,770.5C 224.625,771.479 227.958,771.813 231.5,771.5C 231.5,771.833 231.5,772.167 231.5,772.5C 231.5,772.833 231.5,773.167 231.5,773.5C 186.841,770.253 144.507,758.753 104.5,739C 55.7501,712.383 28.9167,671.216 24,615.5C 18.8629,572.081 19.5296,528.747 26,485.5C 28,473.5 30,461.5 32,449.5C 41.4001,409.316 51.2334,369.316 61.5,329.5C 61.1088,326.249 59.9422,323.249 58,320.5C 46.7033,306.895 33.87,294.728 19.5,284C 8.57917,274.989 2.24584,263.489 0.5,249.5C 3.57067,228.596 15.5707,216.429 36.5,213C 51.2809,210.904 64.7809,214.071 77,222.5C 76.0466,207.587 71.38,193.921 63,181.5C 23.6947,140.377 28.1947,104.877 76.5,75C 116.467,55.1766 158.467,41.8433 202.5,35C 220.167,32.75 237.834,30.5833 255.5,28.5 Z"/></g>
<g><path style="opacity:1" fill="#fafafa" d="M 40.5,213.5 C 53.8443,212.94 65.8443,216.607 76.5,224.5C 79.01,234.661 80.01,244.994 79.5,255.5C 71.7567,251.86 63.7567,248.693 55.5,246C 50.8781,245.307 46.3781,245.807 42,247.5C 39.7859,247.089 38.4526,245.755 38,243.5C 37.0044,238.771 37.5044,234.271 39.5,230C 40.938,229.781 42.2713,229.281 43.5,228.5C 42.6667,228.167 41.8333,227.833 41,227.5C 38.9313,228.27 37.2647,229.603 36,231.5C 35.3333,235.167 35.3333,238.833 36,242.5C 39.9857,252.622 46.4857,260.789 55.5,267C 69.7858,275.609 82.6191,286.109 94,298.5C 100.594,306.021 104.761,314.687 106.5,324.5C 104.648,339.832 95.9813,346.332 80.5,344C 75.8222,342.324 71.9889,339.491 69,335.5C 64.8327,327.828 60.1661,320.495 55,313.5C 40.1429,300.065 25.4762,286.399 11,272.5C -2.63382,252.587 0.199517,235.421 19.5,221C 26.2687,217.579 33.2687,215.079 40.5,213.5 Z"/></g>
<g><path style="opacity:1" fill="#f5f5f5" d="M 47.5,247.5 C 58.4411,247.969 68.4411,251.302 77.5,257.5C 78.3134,264.627 77.4801,271.627 75,278.5C 62.493,270.831 51.3263,261.498 41.5,250.5C 43.5939,249.482 45.5939,248.482 47.5,247.5 Z"/></g>
<g><path style="opacity:1" fill="#2f2f2f" d="M 434.5,26.5 C 475.112,27.9019 515.112,33.4019 554.5,43C 585.1,51.2091 611.267,66.7091 633,89.5C 648.216,109.116 649.549,129.783 637,151.5C 630.439,162.062 623.106,172.062 615,181.5C 604.747,195.843 600.08,211.843 601,229.5C 622.036,210.783 645.203,207.616 670.5,220C 691.141,236.843 692.975,255.677 676,276.5C 664.956,286.383 653.789,296.049 642.5,305.5C 635.642,312.347 629.976,320.014 625.5,328.5C 635.724,363.939 646.224,399.272 657,434.5C 671.794,500.069 672.128,565.736 658,631.5C 650.353,661.124 637.353,688.124 619,712.5C 603.524,730.829 584.691,744.663 562.5,754C 530.225,766.035 496.892,773.201 462.5,775.5C 461.833,775.5 461.5,775.167 461.5,774.5C 462.167,774.5 462.5,774.167 462.5,773.5C 463.5,773.5 464.5,773.5 465.5,773.5C 503.911,770.83 540.578,761.663 575.5,746C 606.428,728.005 628.928,702.505 643,669.5C 657.651,631.936 665.318,592.936 666,552.5C 668.216,514.304 664.883,476.637 656,439.5C 645.982,404.1 635.649,368.766 625,333.5C 624.577,332.044 623.744,331.544 622.5,332C 615.598,345.734 604.932,349.734 590.5,344C 579.618,336.769 576.451,326.936 581,314.5C 584.667,309.167 588.333,303.833 592,298.5C 598.282,292.893 603.782,286.726 608.5,280C 601.226,259.085 598.06,237.585 599,215.5C 602.777,195.942 611.777,179.276 626,165.5C 630.732,158.427 635.065,151.094 639,143.5C 641.791,136.432 643.624,129.099 644.5,121.5C 644.082,115.986 642.915,110.652 641,105.5C 633.692,91.5225 623.526,80.0225 610.5,71C 586.109,54.8898 559.443,44.2232 530.5,39C 499.775,33.1402 468.775,29.6402 437.5,28.5C 436.833,28.5 436.167,28.5 435.5,28.5C 434.833,28.5 434.5,28.1667 434.5,27.5C 434.5,27.1667 434.5,26.8333 434.5,26.5 Z"/></g>
<g><path style="opacity:1" fill="#f3f3f3" d="M 633.5,248.5 C 636.85,248.335 640.183,248.502 643.5,249C 645.158,249.725 645.658,250.892 645,252.5C 634.556,262.448 623.39,271.448 611.5,279.5C 608.457,273.873 606.957,267.873 607,261.5C 615.428,256.202 624.261,251.869 633.5,248.5 Z"/></g>
<g><path style="opacity:1" fill="#fbfbfb" d="M 634.5,214.5 C 654.373,211.948 670.207,218.614 682,234.5C 687.836,248.137 686.169,260.804 677,272.5C 664.026,284.138 651.026,295.805 638,307.5C 629.5,319 621,330.5 612.5,342C 594.438,348.498 584.104,342.332 581.5,323.5C 581.244,319.877 582.077,316.544 584,313.5C 596.955,293.21 613.788,277.044 634.5,265C 641.097,259.405 646.597,252.905 651,245.5C 653.379,240.297 652.879,235.464 649.5,231C 647.635,229.699 645.635,229.365 643.5,230C 646.196,230.69 648.363,232.19 650,234.5C 650.813,238.664 650.313,242.664 648.5,246.5C 642.156,246.158 635.823,246.658 629.5,248C 621.091,251.371 613.091,255.538 605.5,260.5C 601.932,251.504 600.765,242.171 602,232.5C 604.945,228.768 608.445,225.601 612.5,223C 619.602,219.249 626.935,216.416 634.5,214.5 Z"/></g>
<g><path style="opacity:1" fill="#7c7c7c" d="M 261.5,740.5 C 258.479,737.634 255.979,734.3 254,730.5C 253.581,731.672 252.915,732.672 252,733.5C 250.765,741.423 250.098,749.423 250,757.5C 249.751,758.624 249.251,759.624 248.5,760.5C 241.072,751.563 231.738,745.729 220.5,743C 225.822,742.915 230.822,744.248 235.5,747C 239.667,750.5 243.833,754 248,757.5C 248.333,750.5 248.667,743.5 249,736.5C 249.661,732.993 251.495,730.326 254.5,728.5C 257.361,732.227 259.695,736.227 261.5,740.5 Z"/></g>
<g><path style="opacity:1" fill="#7a7a7a" d="M 369.5,757.5 C 368.852,760.323 367.186,761.823 364.5,762C 360.765,755.596 356.265,749.763 351,744.5C 348.529,740.551 346.362,736.551 344.5,732.5C 342.183,734.316 340.016,736.316 338,738.5C 336.058,742.069 333.892,745.402 331.5,748.5C 333.825,740.499 338.492,734.165 345.5,729.5C 348.92,738.953 354.42,747.287 362,754.5C 362.914,756.664 364.081,758.664 365.5,760.5C 366.283,758.712 367.616,757.712 369.5,757.5 Z"/></g>
<g><path style="opacity:1" fill="#7b7b7b" d="M 396.5,745.5 C 392.363,739.331 386.863,734.664 380,731.5C 380.325,737.78 378.825,743.447 375.5,748.5C 377.087,742.318 377.921,735.985 378,729.5C 387.178,731.521 393.344,736.854 396.5,745.5 Z"/></g>
<g><path style="opacity:1" fill="#787878" d="M 437.5,732.5 C 439.474,734.428 440.974,736.761 442,739.5C 442.995,744.453 443.662,749.453 444,754.5C 445.426,752.234 447.26,750.568 449.5,749.5C 447.552,752.621 445.385,755.621 443,758.5C 442.667,758.167 442.333,757.833 442,757.5C 442.44,748.746 440.94,740.412 437.5,732.5 Z"/></g>
<g><path style="opacity:1" fill="#707070" d="M 474.5,733.5 C 473.095,737.236 470.429,739.569 466.5,740.5C 469.141,738.196 471.808,735.862 474.5,733.5 Z"/></g>
<g><path style="opacity:1" fill="#797979" d="M 331.5,748.5 C 329.348,755.441 327.348,762.441 325.5,769.5C 323.333,765.833 321.167,762.167 319,758.5C 309.359,751.026 300.526,742.692 292.5,733.5C 291.052,735.667 289.885,738 289,740.5C 288.879,747.246 288.212,753.913 287,760.5C 285.256,765.778 283.756,765.778 282.5,760.5C 284.129,762.06 285.296,761.727 286,759.5C 285.352,749.998 287.019,740.998 291,732.5C 291.561,731.978 292.228,731.645 293,731.5C 301.622,740.453 310.622,749.12 320,757.5C 321.667,760.167 323.333,762.833 325,765.5C 326.097,759.326 328.263,753.66 331.5,748.5 Z"/></g>
<g><path style="opacity:1" fill="#6b6b6b" d="M 466.5,740.5 C 464.574,742.293 462.241,743.293 459.5,743.5C 461.426,741.707 463.759,740.707 466.5,740.5 Z"/></g>
<g><path style="opacity:1" fill="#787878" d="M 437.5,732.5 C 436.542,732.047 435.708,731.381 435,730.5C 431.443,738.555 425.943,744.888 418.5,749.5C 422.066,745.592 425.733,741.592 429.5,737.5C 431.356,734.591 433.023,731.591 434.5,728.5C 436.288,729.283 437.288,730.616 437.5,732.5 Z"/></g>
<g><path style="opacity:1" fill="#707070" d="M 459.5,743.5 C 456.434,745.89 453.1,747.89 449.5,749.5C 452.069,746.272 455.402,744.272 459.5,743.5 Z"/></g>
<g><path style="opacity:1" fill="#646464" d="M 217.5,749.5 C 214.854,747.521 212.521,745.188 210.5,742.5C 213.106,741.348 215.773,741.182 218.5,742C 216.5,742.333 214.5,742.667 212.5,743C 214.79,744.777 216.457,746.944 217.5,749.5 Z"/></g>
<g><path style="opacity:1" fill="#737373" d="M 396.5,745.5 C 398.818,747.185 399.818,749.519 399.5,752.5C 397.707,750.574 396.707,748.241 396.5,745.5 Z"/></g>
<g><path style="opacity:1" fill="#7e7e7e" d="M 261.5,740.5 C 266.514,744.869 271.847,749.035 277.5,753C 280.2,754.857 281.866,757.357 282.5,760.5C 277.982,755.821 272.982,751.654 267.5,748C 264.882,745.894 262.882,743.394 261.5,740.5 Z"/></g>
<g><path style="opacity:1" fill="#6d6d6d" d="M 375.5,748.5 C 374.277,752.049 372.277,755.049 369.5,757.5C 370.759,753.975 372.759,750.975 375.5,748.5 Z"/></g>
<g><path style="opacity:1" fill="#777777" d="M 473.5,758.5 C 476.302,750.058 477.135,741.392 476,732.5C 475.617,733.056 475.117,733.389 474.5,733.5C 474.415,732.005 475.081,731.005 476.5,730.5C 478.866,737.412 479.033,744.412 477,751.5C 476.478,754.281 475.311,756.615 473.5,758.5 Z"/></g>
<g><path style="opacity:1" fill="#7c7c7c" d="M 217.5,749.5 C 219.074,749.937 220.241,750.937 221,752.5C 223.705,756.577 225.872,760.91 227.5,765.5C 223.669,760.511 220.336,755.178 217.5,749.5 Z"/></g>
<g><path style="opacity:1" fill="#6a6a6a" d="M 399.5,752.5 C 401.293,754.426 402.293,756.759 402.5,759.5C 400.707,757.574 399.707,755.241 399.5,752.5 Z"/></g>
<g><path style="opacity:1" fill="#6c6c6c" d="M 418.5,749.5 C 413.536,754.088 409.536,759.421 406.5,765.5C 403.929,764.272 402.595,762.272 402.5,759.5C 403.885,760.574 405.051,761.907 406,763.5C 408.629,757.375 412.796,752.709 418.5,749.5 Z"/></g>
<g><path style="opacity:1" fill="#777777" d="M 473.5,758.5 C 471.617,763.934 468.95,768.934 465.5,773.5C 464.5,773.5 463.5,773.5 462.5,773.5C 466.585,768.757 470.251,763.757 473.5,758.5 Z"/></g>
<g><path style="opacity:1" fill="#a8a8a8" d="M 227.5,765.5 C 229.316,767.118 230.649,769.118 231.5,771.5C 227.958,771.813 224.625,771.479 221.5,770.5C 223.924,770.808 226.257,770.474 228.5,769.5C 227.754,768.264 227.421,766.93 227.5,765.5 Z"/></g>
<g><path style="opacity:1" fill="#7f7f7f" d="M 231.5,772.5 C 237.021,780.519 244.021,787.019 252.5,792C 242.656,789.338 235.656,783.171 231.5,773.5C 231.5,773.167 231.5,772.833 231.5,772.5 Z"/></g>
<g><path style="opacity:1" fill="#747474" d="M 461.5,774.5 C 461.5,775.167 461.833,775.5 462.5,775.5C 454.679,783.412 445.346,788.746 434.5,791.5C 444.274,787.11 453.274,781.444 461.5,774.5 Z"/></g>
<g><path style="opacity:1" fill="#6e6e6e" d="M 434.5,791.5 C 429.624,794.346 424.291,796.013 418.5,796.5C 423.547,794.233 428.88,792.566 434.5,791.5 Z"/></g>
<g><path style="opacity:1" fill="#676767" d="M 367.5,802.5 C 367.5,802.833 367.5,803.167 367.5,803.5C 342.813,803.83 318.146,803.33 293.5,802C 281.61,800.63 269.943,798.297 258.5,795C 272.66,797.747 286.994,799.747 301.5,801C 323.481,802.268 345.481,802.768 367.5,802.5 Z"/></g>
<g><path style="opacity:1" fill="#787878" d="M 418.5,796.5 C 414.75,798.094 410.75,799.261 406.5,800C 393.559,801.849 380.559,803.016 367.5,803.5C 367.5,803.167 367.5,802.833 367.5,802.5C 384.49,801.632 401.49,799.632 418.5,796.5 Z"/></g>
</svg>
